HIERARCHY
ROOT hip
{
	OFFSET 0.000000 0.000000 0.000000 
	CHANNELS 6 Xposition Yposition Zposition Xrotation Zrotation Yrotation
	JOINT abdomen
	{
		OFFSET 0.000000 3.402643 0.000000 
		CHANNELS 3 Xrotation Zrotation Yrotation
		JOINT chest
		{
			OFFSET 0.000000 8.438565 -0.680529 
			CHANNELS 3 Xrotation Zrotation Yrotation
			JOINT neck
			{
				OFFSET 0.000000 10.207942 -0.272212 
				CHANNELS 3 Xrotation Zrotation Yrotation
				JOINT head
				{
					OFFSET 0.000000 3.130431 0.000000 
					CHANNELS 3 Xrotation Zrotation Yrotation
					End Site
					{
						OFFSET 0.000000 3.130435 0.000000 
					}
				}
			}
			JOINT lCollar
			{
				OFFSET 3.470700 6.669187 -0.816635 
				CHANNELS 3 Yrotation Zrotation Xrotation
				JOINT lShldr
				{
					OFFSET 3.198488 0.000000 0.000000 
					CHANNELS 3 Zrotation Yrotation Xrotation
					JOINT lForeArm
					{
						OFFSET 10.139888 0.000000 0.000000 
						CHANNELS 3 Yrotation Zrotation Xrotation
						JOINT lHand
						{
							OFFSET 8.370511 0.000000 0.000000 
							CHANNELS 3 Zrotation Yrotation Xrotation
							End Site
							{
								OFFSET 4.083176 0.000000 0.000000 
							}
						}
					}
				}
			}
			JOINT rCollar
			{
				OFFSET -3.470700 6.669187 -0.816635 
				CHANNELS 3 Yrotation Zrotation Xrotation
				JOINT rShldr
				{
					OFFSET -3.198488 0.000000 0.000000 
					CHANNELS 3 Zrotation Yrotation Xrotation
					JOINT rForeArm
					{
						OFFSET -10.139888 0.000000 0.000000 
						CHANNELS 3 Yrotation Zrotation Xrotation
						JOINT rHand
						{
							OFFSET -8.370511 0.000000 0.000000 
							CHANNELS 3 Zrotation Yrotation Xrotation
							End Site
							{
								OFFSET -4.083176 0.000000 0.000000 
							}
						}
					}
				}
			}
		}
	}
	JOINT lThigh
	{
		OFFSET 5.308129 -1.633274 1.361059 
		CHANNELS 3 Xrotation Zrotation Yrotation
		JOINT lShin
		{
			OFFSET -2.041588 -20.007561 0.000000 
			CHANNELS 3 Xrotation Zrotation Yrotation
			JOINT lFoot
			{
				OFFSET 0.000000 -19.190928 -1.224953 
				CHANNELS 3 Xrotation Yrotation Zrotation
				End Site
				{
					OFFSET 0.000000 -2.449906 4.627600 
				}
			}
		}
	}
	JOINT rThigh
	{
		OFFSET -5.308129 -1.633274 1.361059 
		CHANNELS 3 Xrotation Zrotation Yrotation
		JOINT rShin
		{
			OFFSET 2.041588 -20.007561 0.000000 
			CHANNELS 3 Xrotation Zrotation Yrotation
			JOINT rFoot
			{
				OFFSET 0.000000 -19.190928 -1.224953 
				CHANNELS 3 Xrotation Yrotation Zrotation
				End Site
				{
					OFFSET 0.000000 -2.449906 4.627600 
				}
			}
		}
	}
}
MOTION
Frames: 8
Frame Time: 0.033333
6.436737 38.488873 59.914398 9.399422 -1.840209 24.490196 21.050365 -0.942538 2.064852 -20.839844 0.000000 0.000000 -3.982826 5.545878 -4.877693 -2.520832 -1.255077 0.218355 -4.754609 -0.109184 -0.002653 -54.564114 -33.502968 21.566961 -100.971329 0.447841 49.613480 1.762949 -8.341315 0.276676 4.754609 0.109184 -0.002672 -15.514568 41.766468 -45.754505 51.105793 1.812010 -75.213371 -12.963498 -11.540188 1.321019 -51.327415 -0.078162 -3.289250 39.252129 -4.066293 -21.547075 1.933823 -0.925352 -1.038786 11.342285 -16.703691 -11.031790 29.545210 1.791505 -20.946177 -1.444401 -2.854132 21.838831 
6.516998 38.756229 59.786499 9.231805 -1.522993 20.064819 21.100943 -0.924688 1.935544 -20.839844 0.000000 0.000000 -2.431159 6.271389 -3.813096 -2.520832 -1.255077 0.218355 -4.754609 -0.109184 -0.002653 -53.791748 -33.694618 19.633110 -101.541504 0.424075 47.849682 1.164420 -7.930015 0.300741 4.754609 0.109184 -0.002672 -8.817604 47.000160 -42.410385 58.212891 1.730845 -65.626816 -13.684028 -13.284473 1.539023 -50.339924 2.265594 -2.234897 38.622169 -4.006051 -19.556393 2.039685 -0.916608 -0.152759 10.536983 -18.251896 -9.237722 28.330345 1.946377 -19.087067 -2.257463 -2.827601 20.173634 
6.525528 39.079769 59.591339 9.094379 -1.359650 14.528299 21.122013 -0.845253 1.809145 -20.839844 0.000000 0.000000 -0.759491 7.141016 -3.146418 -2.520832 -1.255077 0.218355 -4.754609 -0.109184 -0.002653 -52.040710 -33.945362 16.545845 -102.484184 0.382839 44.068092 -0.008578 -7.010527 0.326203 4.754609 0.109184 -0.002672 3.247329 52.026543 -34.178360 68.164726 1.560689 -54.347942 -13.154084 -15.141210 1.604971 -49.205196 5.263000 -1.465732 37.690086 -3.938378 -16.901175 2.073138 -0.815359 0.029154 9.468417 -19.759539 -7.906585 26.458042 2.143201 -17.136694 -3.678300 -2.880114 18.310640 
6.426193 39.399288 59.305450 8.996414 -1.282856 8.292843 21.133051 -0.707703 1.694658 -20.839844 0.000000 0.000000 0.770426 7.829975 -2.428016 -2.520832 -1.255077 0.218355 -4.754609 -0.109184 -0.002653 -48.872993 -33.898903 12.252907 -103.385895 0.322131 39.057983 -0.743869 -5.594386 0.304946 4.754609 0.109184 -0.002672 21.162903 54.243542 -19.508951 79.803833 1.293410 -41.154766 -10.753143 -16.607695 1.311789 -47.968487 8.710693 -0.775875 36.636387 -3.830450 -13.923450 2.172252 -0.699864 -0.395510 8.003065 -20.929369 -6.957140 24.556784 2.222909 -16.486294 -5.048697 -2.952225 17.479591 
6.186951 39.677181 58.909164 8.820726 -1.322073 2.040785 21.154251 -0.512895 1.539691 -20.839844 0.000000 0.000000 1.973771 7.906802 -1.428664 -2.520832 -1.255077 0.218355 -4.754609 -0.109184 -0.002653 -44.599792 -32.933636 7.534136 -104.570053 0.249963 32.711498 -0.653121 -3.593745 0.232184 4.754609 0.109184 -0.002672 40.246685 51.589153 -1.948268 90.141533 0.849914 -23.766563 -6.255530 -16.410561 0.552358 -46.582115 12.314601 -0.217864 35.544338 -3.764259 -10.954585 2.459888 -0.579150 -0.827160 6.217865 -21.360025 -6.240143 23.442648 2.163939 -17.483326 -5.985663 -3.091332 17.651711 
5.804733 39.874813 58.361404 8.606140 -1.409734 -3.738900 21.214855 -0.291693 1.342831 -20.839844 0.000000 0.000000 2.790644 7.354075 -0.404188 -2.520832 -1.255077 0.218355 -4.754609 -0.109184 -0.002653 -39.654510 -30.930180 2.467560 -106.183929 0.152287 24.942366 -0.347881 -1.075845 0.142270 4.754609 0.109184 -0.002672 53.188519 45.213264 11.773422 96.645042 0.284920 -4.783148 -2.117695 -13.263309 -0.097963 -45.238609 15.603598 -0.446351 34.356922 -3.624795 -7.597702 3.069341 -0.428155 -1.286684 4.118204 -21.104233 -5.826324 23.715406 2.065855 -19.339735 -6.019145 -3.343672 18.767635 
5.317154 39.976650 57.656143 8.429774 -1.255820 -9.072983 21.285139 -0.134304 1.121464 -20.839844 0.000000 0.000000 3.411849 6.211354 0.895484 -2.520832 -1.255077 0.218355 -4.754609 -0.109184 -0.002653 -33.838779 -27.944794 -3.452062 -107.072868 0.059236 17.397408 0.244740 0.895197 0.062423 4.754609 0.109184 -0.002672 59.681046 37.956112 20.389881 100.138672 -0.179107 9.875093 -1.169874 -9.078724 -0.165615 -43.917530 18.444046 -1.237614 32.991802 -3.477724 -3.856455 4.022326 -0.270492 -2.070814 2.011219 -20.799707 -5.855449 24.580917 1.936740 -21.909773 -5.184228 -3.697995 21.351566 
4.752350 40.030819 56.806931 8.321153 -0.811678 -13.956729 21.325333 -0.062749 0.960912 -20.839844 0.000000 0.000000 3.964811 4.546997 2.912840 -2.520832 -1.255077 0.218355 -4.754609 -0.109184 -0.002653 -27.812052 -23.952620 -9.432953 -105.990837 0.002014 12.897067 1.038478 1.774237 0.050723 4.754609 0.109184 -0.002672 62.555523 30.972193 25.503204 101.959518 -0.427910 17.880447 -2.766904 -6.191354 -0.021538 -42.358971 21.004038 -1.546732 30.971273 -3.365469 -0.611145 5.428982 -0.135986 -3.224808 -0.283411 -20.672323 -5.877481 25.360285 1.804294 -24.578072 -5.309611 -4.174599 23.640369 
